<svg width="921" height="516" viewBox="0 0 921 516" fill="none" xmlns="http://www.w3.org/2000/svg">
<g clip-path="url(#clip0_8_52)">
<path d="M193.679 513.126H53.079C53.079 513.126 50.229 471.326 67.091 470.851C83.953 470.376 82.053 489.376 103.191 463.251C124.329 437.126 149.978 438.551 153.303 453.989C156.628 469.427 146.891 481.776 164.703 477.976C182.515 474.176 208.166 484.15 193.679 513.126Z" fill="#E6E6E6"/>
<path d="M121.006 513.136L120.531 513.117C121.638 485.597 127.401 467.917 132.042 457.927C137.08 447.083 141.935 442.693 141.984 442.65L142.3 443.005C142.252 443.048 137.454 447.394 132.456 458.165C127.841 468.109 122.109 485.719 121.006 513.136Z" fill="white"/>
<path d="M171.892 513.192L171.436 513.059C174.972 501.395 181.346 490.791 189.987 482.196L190.306 482.548C181.729 491.083 175.402 501.612 171.892 513.192Z" fill="white"/>
<path d="M75.225 513.159L74.754 513.094C76.287 502.776 74.6651 492.235 70.101 482.856C68.23 478.922 65.7532 475.306 62.761 472.14L63.09 471.797C66.1227 475.001 68.6336 478.661 70.531 482.645C75.1362 492.11 76.7724 502.747 75.225 513.159Z" fill="white"/>
<path d="M212.76 513.761H37.915L37.875 513.168C37.775 511.695 35.544 476.941 46.805 464.54C47.9222 463.229 49.3014 462.168 50.8537 461.423C52.4059 460.678 54.097 460.266 55.818 460.214C63.158 460.005 67.771 462.755 71.492 464.961C78.505 469.121 83.137 471.87 99.982 451.051C118.229 428.498 137.918 423.646 149.236 426.344C156.549 428.088 161.589 433.014 163.064 439.863C164.464 446.348 164.016 452.442 163.658 457.339C163.275 462.578 162.973 466.714 165.125 468.59C166.925 470.155 170.506 470.298 176.406 469.039C188.406 466.479 205.154 468.668 213.559 479.529C218.081 485.372 221.644 495.993 212.936 513.41L212.76 513.761ZM39.108 512.49H211.973C218.462 499.325 218.665 488.203 212.554 480.308C204.843 470.345 188.666 467.723 176.671 470.282C170.26 471.65 166.441 471.424 164.29 469.55C161.659 467.258 161.982 462.84 162.39 457.25C162.742 452.435 163.179 446.441 161.821 440.134C160.453 433.783 155.758 429.209 148.94 427.584C137.983 424.97 118.84 429.76 100.969 451.853C83.435 473.525 78.152 470.393 70.843 466.053C67.076 463.819 62.8 461.286 55.853 461.483C54.3036 461.533 52.7817 461.907 51.3853 462.58C49.9889 463.253 48.7489 464.211 47.745 465.392C37.627 476.538 38.861 507.791 39.109 512.49H39.108Z" fill="#2F2E41"/>
<path d="M757.002 514H610.999L610.971 513.199L604 318H764L757.002 514ZM612.637 512.34H755.364L762.245 319.66H605.755L612.637 512.34Z" fill="#3F3D56"/>
<path d="M645.556 354.187H634.414V489.103H645.556V354.187Z" fill="#3F3D56"/>
<path d="M689.429 354.187H678.286V489.103H689.429V354.187Z" fill="#3F3D56"/>
<path d="M733.302 354.187H722.159V489.103H733.302V354.187Z" fill="#3F3D56"/>
<path d="M857.254 375L856.536 374.557L675 262.368L690.747 238L691.465 238.443L873 350.632L857.254 375ZM677.342 261.851L856.725 372.71L870.658 351.149L691.276 240.29L677.342 261.851Z" fill="#3F3D56"/>
<path d="M813.621 252.991C808.288 249.696 802.1 247.964 795.789 248.001C789.479 248.037 783.311 249.84 778.019 253.195C772.726 256.551 768.531 261.319 765.93 266.932C763.33 272.546 762.434 278.77 763.348 284.866L772.096 290.263C769.897 285.28 769.391 279.74 770.65 274.455C771.91 269.171 774.87 264.419 779.096 260.895C783.322 257.371 788.593 255.26 794.136 254.873C799.68 254.485 805.205 255.84 809.902 258.739C814.6 261.639 818.224 265.93 820.242 270.985C822.261 276.041 822.569 281.594 821.121 286.833C819.673 292.071 816.545 296.72 812.196 300.097C807.846 303.475 802.503 305.404 796.949 305.603L805.697 311C811.73 309.192 817.105 305.732 821.184 301.031C825.263 296.33 827.875 290.585 828.71 284.478C829.545 278.371 828.568 272.158 825.895 266.577C823.222 260.996 818.965 256.281 813.629 252.991H813.621Z" fill="#3F3D56"/>
<path d="M909 513.087H0V515.087H909V513.087Z" fill="#3F3D56"/>
<path d="M540.533 376.492L456.531 317.619C455.751 317.07 455.22 316.234 455.055 315.294C454.889 314.354 455.103 313.387 455.649 312.604L521.581 218.531C522.13 217.751 522.966 217.22 523.906 217.055C524.846 216.889 525.813 217.103 526.595 217.649L610.597 276.522C611.377 277.071 611.908 277.908 612.074 278.847C612.239 279.787 612.025 280.754 611.479 281.537L545.549 375.607C545.001 376.389 544.164 376.92 543.224 377.086C542.284 377.252 541.316 377.038 540.533 376.492Z" fill="#7B80E3"/>
<path d="M559.424 312.611L510.133 278.065C509.563 277.666 509.077 277.158 508.704 276.571C508.33 275.983 508.075 275.328 507.955 274.643C507.834 273.957 507.85 273.254 508.001 272.575C508.152 271.895 508.435 271.252 508.835 270.682C509.234 270.112 509.742 269.626 510.329 269.253C510.917 268.879 511.572 268.625 512.257 268.504C512.943 268.383 513.645 268.399 514.325 268.55C515.004 268.701 515.648 268.984 516.218 269.384L565.508 303.929C566.66 304.736 567.443 305.967 567.687 307.352C567.93 308.736 567.614 310.161 566.807 311.312C566 312.464 564.769 313.247 563.384 313.491C562 313.734 560.575 313.418 559.424 312.611Z" fill="white"/>
<path d="M548.111 328.752L498.821 294.206C498.25 293.807 497.764 293.299 497.389 292.712C497.015 292.124 496.76 291.469 496.639 290.783C496.518 290.097 496.534 289.394 496.684 288.714C496.835 288.034 497.119 287.391 497.519 286.82C497.918 286.25 498.426 285.764 499.014 285.39C499.602 285.016 500.257 284.762 500.943 284.642C501.629 284.521 502.332 284.537 503.012 284.689C503.692 284.84 504.335 285.124 504.905 285.525L554.196 320.07C555.346 320.878 556.128 322.108 556.371 323.492C556.614 324.876 556.297 326.3 555.491 327.45C554.684 328.601 553.454 329.384 552.07 329.628C550.687 329.872 549.263 329.557 548.111 328.752Z" fill="white"/>
<path d="M536.677 345.066L487.387 310.52C486.817 310.121 486.331 309.613 485.957 309.026C485.583 308.439 485.329 307.783 485.208 307.098C485.088 306.412 485.103 305.71 485.254 305.03C485.405 304.351 485.689 303.707 486.088 303.137C486.488 302.567 486.996 302.082 487.583 301.708C488.17 301.334 488.825 301.08 489.511 300.959C490.196 300.839 490.899 300.854 491.578 301.005C492.258 301.156 492.901 301.439 493.471 301.839L542.762 336.385C543.913 337.191 544.697 338.423 544.94 339.807C545.184 341.192 544.867 342.616 544.06 343.767C543.253 344.919 542.022 345.702 540.638 345.946C539.253 346.189 537.829 345.873 536.677 345.066Z" fill="white"/>
<path d="M559.285 280.681L540.194 267.3C539.623 266.901 539.136 266.393 538.762 265.806C538.388 265.219 538.133 264.563 538.012 263.877C537.891 263.191 537.906 262.488 538.057 261.808C538.208 261.129 538.492 260.485 538.891 259.915C539.291 259.344 539.799 258.858 540.387 258.485C540.975 258.111 541.63 257.856 542.316 257.736C543.002 257.616 543.705 257.632 544.385 257.783C545.065 257.935 545.708 258.219 546.278 258.619L565.37 271.999C566.521 272.806 567.304 274.037 567.548 275.422C567.792 276.806 567.475 278.231 566.668 279.382C565.861 280.533 564.63 281.317 563.246 281.561C561.861 281.804 560.437 281.488 559.285 280.681Z" fill="white"/>
<path d="M393.084 239.656L422.913 270.07L469.664 317.72L475.983 324.163C476.561 324.747 477.036 325.462 477.38 326.266C477.723 327.069 477.929 327.946 477.984 328.844C478.066 330.149 477.833 331.454 477.313 332.607C477.114 333.042 476.877 333.45 476.604 333.824L473.215 338.505L468.055 345.624C467.96 345.75 467.871 345.868 467.768 345.987C466.738 347.211 465.355 347.928 463.898 347.995C462.44 348.062 461.016 347.473 459.909 346.347L406.896 292.321L377.004 261.848C375.845 260.661 375.13 258.977 375.016 257.166C374.902 255.354 375.398 253.563 376.395 252.185L378.199 249.698L384.939 240.393C385.433 239.709 386.035 239.147 386.712 238.74C387.388 238.333 388.126 238.088 388.883 238.02C389.639 237.951 390.4 238.061 391.121 238.341C391.842 238.622 392.509 239.069 393.084 239.656Z" fill="#7B80E3"/>
<path d="M370 214C343.49 214 322 188.928 322 158C322 127.072 343.49 102 370 102C396.51 102 418 127.072 418 158C418 188.928 396.51 214 370 214Z" fill="#7B80E3"/>
<path d="M366 376.882V507.118C365.999 508.943 365.406 510.692 364.353 511.982C363.299 513.273 361.87 513.998 360.38 514H347.62C346.13 513.998 344.701 513.273 343.648 511.982C342.594 510.692 342.001 508.943 342 507.118V376.882C342.001 375.057 342.594 373.308 343.648 372.018C344.701 370.727 346.13 370.002 347.62 370H360.38C361.87 370.002 363.299 370.727 364.353 372.018C365.406 373.308 365.999 375.057 366 376.882Z" fill="#2F2E41"/>
<path d="M394 376.882V507.118C394 508.022 393.855 508.917 393.572 509.752C393.29 510.587 392.876 511.345 392.354 511.984C391.832 512.624 391.213 513.13 390.531 513.476C389.849 513.822 389.118 514 388.38 514H375.62C374.13 513.998 372.701 513.273 371.648 511.982C370.594 510.692 370.001 508.943 370 507.118V376.882C370.001 375.057 370.594 373.308 371.648 372.018C372.701 370.727 374.13 370.002 375.62 370H388.38C389.118 370 389.849 370.178 390.531 370.524C391.213 370.87 391.832 371.377 392.354 372.016C392.876 372.655 393.29 373.413 393.572 374.248C393.855 375.083 394 375.978 394 376.882Z" fill="#2F2E41"/>
<path d="M411.116 182.963C410.53 182.987 410.04 182.522 410.026 181.935V181.935C410.012 181.354 410.469 180.872 411.05 180.846C414.107 180.709 416.802 180.336 418.88 178.625C419.535 178.054 420.074 177.332 420.459 176.505C420.845 175.679 421.068 174.769 421.113 173.837C421.154 173.267 421.078 172.695 420.89 172.164C420.703 171.633 420.409 171.158 420.032 170.776C418.497 169.315 416.027 169.788 414.227 170.718V170.718C413.568 171.059 412.796 170.523 412.886 169.786L415.535 147.964C415.599 147.437 416.086 147.067 416.611 147.148V147.148C417.113 147.226 417.462 147.687 417.401 148.19L415.783 161.514C415.409 164.597 418.994 167.02 421.243 169.161V169.161C421.839 169.748 422.307 170.482 422.609 171.306C422.912 172.13 423.042 173.021 422.988 173.911C422.933 175.164 422.636 176.387 422.118 177.497C421.599 178.606 420.872 179.574 419.986 180.333C417.347 182.507 414.004 182.846 411.116 182.963Z" fill="#2F2E41"/>
<path d="M397 149H404C404.552 149 405 149.448 405 150C405 150.552 404.552 151 404 151H397C396.448 151 396 150.552 396 150C396 149.448 396.448 149 397 149Z" fill="#2F2E41"/>
<path d="M357.995 250.779L356.314 297.432L353.692 370.539L353.336 380.422C353.307 381.323 353.124 382.209 352.796 383.027C352.468 383.846 352.003 384.581 351.427 385.19C350.592 386.075 349.556 386.668 348.44 386.898C348.018 386.983 347.589 387.015 347.161 386.993L341.817 386.74L333.687 386.35C333.541 386.339 333.404 386.329 333.257 386.308C331.768 386.107 330.4 385.264 329.426 383.948C328.452 382.631 327.944 380.939 328.005 379.209L330.974 296.314L332.654 249.566C332.723 247.75 333.413 246.04 334.572 244.81C335.732 243.58 337.266 242.932 338.839 243.006L341.68 243.143L352.304 243.649C353.083 243.685 353.849 243.897 354.557 244.275C355.265 244.653 355.902 245.189 356.43 245.851C356.959 246.513 357.369 247.289 357.638 248.135C357.906 248.981 358.028 249.88 357.995 250.779Z" fill="#7B80E3"/>
<path d="M362 254.441V290.169C361.999 291.948 361.391 293.657 360.304 294.931C359.254 296.162 357.838 296.893 356.341 296.982C356.236 296.988 356.132 297.004 356.027 296.999V296.999H333.973C333.618 296.998 333.265 296.96 332.916 296.884C332.123 296.725 331.366 296.382 330.693 295.875C329.867 295.252 329.189 294.404 328.72 293.409C328.25 292.413 328.003 291.3 328 290.169V254.441C328.005 249.286 329.798 244.345 332.985 240.701C336.172 237.056 340.493 235.006 345 235C346.167 234.997 347.332 235.134 348.474 235.41C352.295 236.328 355.723 238.719 358.186 242.184C360.649 245.649 361.995 249.976 362 254.441Z" fill="#2F2E41"/>
<path d="M423.752 269.519C423.534 270.372 423.177 271.166 422.702 271.855L409.285 291.484C409.045 291.847 408.77 292.173 408.464 292.456C407.439 293.457 406.157 294.002 404.835 294C403.513 293.998 402.231 293.449 401.208 292.446L377.985 269.688C374.634 266.402 372.51 261.657 372.081 256.496C371.651 251.335 372.951 246.181 375.695 242.167C377.053 240.18 378.725 238.533 380.616 237.32C382.506 236.107 384.577 235.351 386.711 235.096C391.021 234.582 395.324 236.139 398.676 239.425L421.898 262.183C422.778 263.05 423.423 264.209 423.753 265.515C424.083 266.82 424.082 268.213 423.752 269.519Z" fill="#2F2E41"/>
<path d="M384.295 124.46C384.623 126.59 385.614 128.5 387.076 129.818C388.538 131.135 390.366 131.767 392.202 131.589C394.039 131.411 395.754 130.437 397.012 128.856C398.271 127.274 398.983 125.2 399.009 123.036C399.019 122.68 399.136 122.341 399.339 122.077C399.542 121.813 399.818 121.642 400.118 121.594C400.418 121.547 400.722 121.625 400.978 121.816C401.233 122.007 401.423 122.298 401.513 122.638C403.268 127.939 407.779 131.566 412.496 132.343C414.987 132.692 417.512 132.239 419.801 131.031C422.089 129.824 424.054 127.909 425.487 125.49C426.996 123.086 427.969 120.276 428.315 117.317C428.661 114.358 428.37 111.344 427.468 108.551C426.538 105.72 425.076 103.172 423.191 101.096C421.306 99.0197 419.046 97.4698 416.58 96.5614C413.626 95.5554 410.502 95.4544 407.505 96.268C404.508 97.0816 401.739 98.7827 399.46 101.209C399.301 101.39 399.105 101.52 398.891 101.586C398.676 101.652 398.451 101.652 398.237 101.585C398.022 101.519 397.826 101.389 397.668 101.207C397.509 101.025 397.393 100.799 397.33 100.549C394.936 85.6871 386.325 72.7765 374.901 65.9207C363.227 58.9144 349.307 59.5497 337.763 66.6263C332.01 70.0963 327.026 75.0969 323.211 81.2295C318.702 88.6173 316.385 97.3677 314.207 105.985C310.395 121.072 305.664 139.143 292.138 145.841C288.505 147.617 284.555 148.314 280.638 147.87C276.721 147.426 272.958 145.855 269.682 143.296C266.405 140.737 263.716 137.27 261.853 133.2C259.99 129.13 259.01 124.583 259 119.963C259.011 119.575 259.151 119.207 259.388 118.937C259.626 118.668 259.944 118.517 260.274 118.517C260.605 118.517 260.923 118.668 261.16 118.937C261.398 119.207 261.537 119.575 261.549 119.963C261.536 124.066 262.383 128.11 264.015 131.739C265.646 135.367 268.013 138.469 270.906 140.771C273.799 143.072 277.13 144.503 280.605 144.937C284.08 145.371 287.593 144.795 290.834 143.259C297.104 140.331 301.642 133.97 304.8 127.178C308.346 119.553 310.216 111.131 312.341 102.865C314.504 94.4497 317.008 85.9433 321.555 78.847C325.469 72.7697 330.469 67.7736 336.204 64.2105C347.792 56.9885 361.613 55.8325 373.719 61.9712C379.591 64.9973 384.85 69.4514 389.148 75.0397C393.446 80.6279 396.686 87.2231 398.653 94.3898C399.025 95.7918 399.341 97.2131 399.6 98.6491C399.692 99.1568 399.211 99.5745 398.718 99.4217V99.4217C398.228 99.2697 398.067 98.6583 398.436 98.3012C400.592 96.2134 403.089 94.6564 405.777 93.7285C408.794 92.6868 411.974 92.4652 415.076 93.0805C418.063 93.7242 420.882 95.1749 423.309 97.3179C425.737 99.461 427.707 102.238 429.063 105.428C430.423 108.559 431.086 112.043 430.991 115.555C430.895 119.068 430.044 122.495 428.517 125.517C425.502 131.459 420.045 135.635 414.054 135.477C410.826 135.405 407.687 134.227 405.022 132.087C402.664 130.193 400.768 127.62 399.512 124.624C399.255 124.011 399.658 123.338 400.314 123.233V123.233C400.965 123.13 401.555 123.638 401.488 124.293C401.24 126.718 400.35 129.004 398.93 130.818C397.267 132.942 394.993 134.27 392.547 134.545C390.1 134.821 387.653 134.025 385.676 132.31C383.699 130.595 382.332 128.083 381.837 125.256C381.493 123.378 383.95 122.575 384.295 124.46Z" fill="#2F2E41"/>
<path d="M323.461 392.806C322.706 396.524 325.547 400 329.341 400H410.736C414.504 400 417.34 396.567 416.628 392.867L388.352 245.867C387.809 243.042 385.337 241 382.46 241H359.187C356.334 241 353.875 243.01 353.307 245.806L323.461 392.806Z" fill="#2F2E41"/>
</g>
<defs>
<clipPath id="clip0_8_52">
<rect width="920.304" height="515.087" fill="white"/>
</clipPath>
</defs>
</svg>
