<svg width="903" height="728" viewBox="0 0 903 728" fill="none" xmlns="http://www.w3.org/2000/svg">
<path d="M366.643 405.86L116.794 470.199C108.319 472.371 99.3282 471.093 91.7943 466.645C84.2605 462.196 78.7987 454.941 76.6073 446.471L1.04641 153.044C-1.12584 144.569 0.152406 135.578 4.60073 128.044C9.04905 120.51 16.3042 115.048 24.7744 112.857L257.218 53.0001L316.713 79.6339L390.371 365.673C392.543 374.148 391.265 383.139 386.817 390.673C382.368 398.207 375.113 403.669 366.643 405.86Z" fill="#F2F2F2"/>
<path d="M27.1434 122.057C21.1115 123.617 15.945 127.507 12.7772 132.872C9.60949 138.237 8.69923 144.639 10.2461 150.675L85.807 444.102C87.3676 450.134 91.257 455.3 96.622 458.468C101.987 461.636 108.39 462.546 114.425 460.999L364.274 396.66C370.306 395.1 375.472 391.21 378.64 385.845C381.808 380.48 382.718 374.078 381.171 368.042L308.654 86.4349L256.369 63.0285L27.1434 122.057Z" fill="white"/>
<path d="M316.078 81.1475L277.41 91.1048C274.587 91.8318 271.591 91.4075 269.081 89.9255C266.571 88.4434 264.753 86.025 264.026 83.2021L256.672 54.6429C256.639 54.5178 256.643 54.3863 256.682 54.2632C256.721 54.1402 256.794 54.0307 256.893 53.9473C256.992 53.8639 257.112 53.8099 257.239 53.7916C257.367 53.7733 257.498 53.7914 257.616 53.8438L316.185 79.8545C316.316 79.9124 316.425 80.0094 316.497 80.1321C316.57 80.2548 316.603 80.3971 316.591 80.5392C316.579 80.6813 316.523 80.8163 316.432 80.9253C316.34 81.0343 316.216 81.112 316.078 81.1475Z" fill="#F2F2F2"/>
<path d="M295.735 331.728L181.982 361.021C181.283 361.201 180.556 361.241 179.841 361.14C179.127 361.039 178.439 360.798 177.818 360.431C177.196 360.064 176.653 359.578 176.22 359.002C175.786 358.425 175.47 357.768 175.29 357.069C175.11 356.371 175.07 355.643 175.171 354.929C175.272 354.214 175.513 353.526 175.88 352.905C176.247 352.284 176.732 351.74 177.309 351.307C177.886 350.873 178.543 350.557 179.241 350.377L292.994 321.085C293.693 320.905 294.42 320.864 295.135 320.965C295.85 321.066 296.537 321.307 297.159 321.674C297.78 322.041 298.323 322.527 298.757 323.104C299.191 323.68 299.506 324.337 299.686 325.036C299.866 325.735 299.907 326.462 299.806 327.177C299.704 327.891 299.464 328.579 299.097 329.2C298.73 329.822 298.244 330.365 297.667 330.799C297.09 331.232 296.434 331.548 295.735 331.728Z" fill="#CCCCCC"/>
<path d="M322.313 344.036L186.607 378.982C185.196 379.345 183.698 379.133 182.443 378.392C181.188 377.651 180.279 376.442 179.915 375.03C179.552 373.619 179.764 372.121 180.505 370.866C181.246 369.611 182.455 368.702 183.867 368.338L319.572 333.393C320.983 333.031 322.48 333.244 323.733 333.985C324.987 334.726 325.896 335.935 326.259 337.345C326.622 338.756 326.411 340.253 325.671 341.507C324.931 342.762 323.723 343.672 322.313 344.036Z" fill="#CCCCCC"/>
<path d="M135.555 396.301C146.282 396.301 154.978 387.605 154.978 376.878C154.978 366.151 146.282 357.455 135.555 357.455C124.828 357.455 116.132 366.151 116.132 376.878C116.132 387.605 124.828 396.301 135.555 396.301Z" fill="#E6E6E6"/>
<path d="M283.64 280.896L132.565 319.785C128.199 320.904 123.567 320.245 119.686 317.953C115.805 315.661 112.992 311.924 111.864 307.56L80.204 184.57C79.0853 180.204 79.7442 175.572 82.0361 171.691C84.328 167.81 88.0658 164.997 92.4294 163.868L243.504 124.979C247.87 123.861 252.502 124.52 256.383 126.811C260.264 129.103 263.077 132.841 264.206 137.205L295.865 260.195C296.984 264.561 296.325 269.193 294.033 273.074C291.741 276.955 288.003 279.768 283.64 280.896Z" fill="white"/>
<path d="M283.64 280.896L132.565 319.785C128.199 320.904 123.567 320.245 119.686 317.953C115.805 315.661 112.992 311.924 111.864 307.56L80.204 184.57C79.0853 180.204 79.7442 175.572 82.0361 171.691C84.328 167.81 88.0658 164.997 92.4294 163.868L243.504 124.979C247.87 123.861 252.502 124.52 256.383 126.811C260.264 129.103 263.077 132.841 264.206 137.205L295.865 260.195C296.984 264.561 296.325 269.193 294.033 273.074C291.741 276.955 288.003 279.768 283.64 280.896ZM92.928 165.805C89.0778 166.801 85.7798 169.283 83.7575 172.708C81.7352 176.132 81.1538 180.219 82.1409 184.071L113.801 307.062C114.796 310.912 117.279 314.21 120.703 316.232C124.127 318.254 128.214 318.836 132.066 317.849L283.141 278.96C286.992 277.964 290.29 275.481 292.312 272.057C294.334 268.633 294.916 264.546 293.928 260.694L262.269 137.703C261.273 133.853 258.791 130.555 255.366 128.533C251.942 126.511 247.855 125.929 244.003 126.916L92.928 165.805Z" fill="#E6E6E6"/>
<path d="M235.84 166.334L159.594 185.96C158.928 186.146 158.216 186.072 157.601 185.753C156.987 185.434 156.517 184.894 156.286 184.242C156.178 183.901 156.141 183.542 156.177 183.186C156.213 182.831 156.321 182.486 156.494 182.174C156.668 181.861 156.903 181.587 157.186 181.369C157.468 181.15 157.793 180.992 158.139 180.903L235.752 160.924C238.887 162.512 238.063 165.761 235.84 166.334Z" fill="#F2F2F2"/>
<path d="M239.283 179.708L163.037 199.334C162.37 199.52 161.658 199.446 161.044 199.127C160.43 198.808 159.96 198.268 159.729 197.616C159.621 197.275 159.584 196.916 159.62 196.56C159.656 196.205 159.764 195.86 159.937 195.548C160.11 195.235 160.346 194.961 160.628 194.743C160.911 194.524 161.235 194.366 161.581 194.277L239.195 174.298C242.33 175.886 241.506 179.135 239.283 179.708Z" fill="#F2F2F2"/>
<path d="M148.515 211.192L125.245 217.182C124.485 217.377 123.679 217.262 123.004 216.863C122.328 216.464 121.838 215.813 121.642 215.054L114.573 187.594C114.379 186.834 114.493 186.028 114.892 185.352C115.291 184.677 115.942 184.187 116.701 183.991L139.971 178.001C140.731 177.806 141.537 177.921 142.212 178.32C142.888 178.719 143.378 179.369 143.574 180.129L150.643 207.589C150.837 208.349 150.723 209.155 150.324 209.83C149.925 210.506 149.274 210.996 148.515 211.192Z" fill="#E6E6E6"/>
<path d="M246.11 207.148L129.745 237.102C129.079 237.288 128.366 237.214 127.752 236.895C127.138 236.576 126.668 236.036 126.437 235.384C126.329 235.043 126.292 234.684 126.328 234.328C126.364 233.972 126.472 233.628 126.645 233.315C126.818 233.003 127.054 232.729 127.336 232.511C127.619 232.292 127.943 232.133 128.289 232.044L246.023 201.738C249.158 203.326 248.333 206.576 246.11 207.148Z" fill="#F2F2F2"/>
<path d="M249.554 220.526L133.189 250.48C132.522 250.666 131.81 250.592 131.196 250.273C130.582 249.954 130.111 249.414 129.88 248.761C129.773 248.421 129.736 248.061 129.772 247.706C129.808 247.35 129.915 247.006 130.089 246.693C130.262 246.381 130.497 246.107 130.78 245.888C131.063 245.67 131.387 245.511 131.733 245.422L249.467 215.116C252.602 216.704 251.777 219.953 249.554 220.526Z" fill="#F2F2F2"/>
<path d="M252.995 233.895L136.63 263.849C135.964 264.035 135.251 263.961 134.637 263.642C134.023 263.323 133.553 262.783 133.322 262.131C133.214 261.79 133.177 261.431 133.213 261.075C133.249 260.72 133.357 260.375 133.53 260.063C133.704 259.75 133.939 259.476 134.222 259.258C134.504 259.039 134.829 258.88 135.175 258.791L252.908 228.485C256.043 230.073 255.218 233.323 252.995 233.895Z" fill="#F2F2F2"/>
<path d="M256.438 247.272L140.074 277.226C139.407 277.412 138.695 277.338 138.081 277.019C137.466 276.7 136.996 276.16 136.765 275.507C136.658 275.167 136.621 274.808 136.656 274.452C136.692 274.096 136.8 273.752 136.974 273.439C137.147 273.127 137.382 272.853 137.665 272.634C137.948 272.416 138.272 272.257 138.618 272.168L256.351 241.862C259.487 243.45 258.662 246.7 256.438 247.272Z" fill="#F2F2F2"/>
<path d="M259.88 260.642L143.515 290.596C142.849 290.782 142.136 290.708 141.522 290.389C140.908 290.07 140.438 289.53 140.207 288.878C140.099 288.537 140.062 288.178 140.098 287.822C140.134 287.467 140.242 287.122 140.415 286.81C140.589 286.497 140.824 286.223 141.107 286.005C141.389 285.786 141.714 285.627 142.06 285.538L259.793 255.232C262.928 256.821 262.103 260.07 259.88 260.642Z" fill="#F2F2F2"/>
<path d="M136.988 383.686C136.565 383.796 136.118 383.765 135.714 383.598L135.689 383.588L130.398 381.345C130.152 381.241 129.929 381.089 129.742 380.899C129.555 380.709 129.408 380.484 129.308 380.237C129.208 379.99 129.157 379.725 129.16 379.459C129.162 379.192 129.217 378.928 129.322 378.683C129.426 378.438 129.578 378.215 129.768 378.028C129.958 377.842 130.184 377.694 130.431 377.595C130.678 377.495 130.943 377.445 131.21 377.448C131.476 377.451 131.74 377.506 131.985 377.611L135.414 379.07L139.907 368.5C140.011 368.255 140.162 368.033 140.352 367.847C140.542 367.66 140.767 367.513 141.014 367.413C141.261 367.314 141.525 367.264 141.792 367.266C142.058 367.269 142.321 367.323 142.566 367.428L142.54 367.497L142.568 367.428C143.062 367.639 143.453 368.037 143.654 368.536C143.855 369.035 143.85 369.593 143.64 370.088L138.354 382.515C138.232 382.801 138.045 383.056 137.808 383.259C137.571 383.461 137.291 383.607 136.989 383.683L136.988 383.686Z" fill="white"/>
<path d="M462.475 517.678H204.475C195.726 517.668 187.338 514.188 181.152 508.001C174.965 501.815 171.485 493.427 171.475 484.678V181.678C171.485 172.928 174.965 164.541 181.152 158.354C187.338 152.167 195.726 148.687 204.475 148.678H444.502L495.475 189.306V484.678C495.465 493.427 491.985 501.815 485.799 508.001C479.612 514.188 471.224 517.668 462.475 517.678Z" fill="#E6E6E6"/>
<path d="M204.475 158.178C198.245 158.185 192.271 160.663 187.866 165.068C183.46 169.474 180.982 175.447 180.975 181.678V484.678C180.982 490.908 183.46 496.881 187.866 501.287C192.271 505.692 198.245 508.17 204.475 508.178H462.475C468.706 508.17 474.679 505.692 479.084 501.287C483.49 496.881 485.968 490.908 485.975 484.678V193.883L441.179 158.178H204.475Z" fill="white"/>
<path d="M412.294 246.282H294.83C293.373 246.282 291.975 245.703 290.945 244.672C289.914 243.642 289.335 242.244 289.335 240.786C289.335 239.329 289.914 237.931 290.945 236.901C291.975 235.87 293.373 235.291 294.83 235.291H412.294C413.752 235.291 415.149 235.87 416.18 236.901C417.211 237.931 417.789 239.329 417.789 240.786C417.789 242.244 417.211 243.642 416.18 244.672C415.149 245.703 413.752 246.282 412.294 246.282Z" fill="#7B80E3"/>
<path d="M434.963 264.829H294.831C293.374 264.827 291.978 264.247 290.949 263.217C289.92 262.186 289.343 260.79 289.343 259.333C289.343 257.877 289.92 256.48 290.949 255.45C291.978 254.42 293.374 253.84 294.831 253.838H434.963C435.685 253.837 436.4 253.978 437.068 254.254C437.736 254.53 438.342 254.934 438.853 255.445C439.364 255.955 439.77 256.561 440.047 257.229C440.323 257.896 440.466 258.611 440.466 259.333C440.466 260.056 440.323 260.771 440.047 261.438C439.77 262.105 439.364 262.711 438.853 263.222C438.342 263.732 437.736 264.137 437.068 264.413C436.4 264.688 435.685 264.83 434.963 264.829Z" fill="#7B80E3"/>
<path d="M412.295 318.406H294.835C293.377 318.406 291.98 318.984 290.949 320.015C289.919 321.045 289.34 322.443 289.34 323.901C289.34 325.358 289.919 326.756 290.949 327.786C291.98 328.817 293.377 329.396 294.835 329.396H412.295C413.752 329.396 415.15 328.817 416.18 327.786C417.211 326.756 417.79 325.358 417.79 323.901C417.79 322.443 417.211 321.045 416.18 320.015C415.15 318.984 413.752 318.406 412.295 318.406Z" fill="#CCCCCC"/>
<path d="M434.965 336.956H294.835C293.377 336.956 291.98 337.535 290.949 338.565C289.919 339.596 289.34 340.993 289.34 342.451C289.34 343.908 289.919 345.306 290.949 346.336C291.98 347.367 293.377 347.946 294.835 347.946H434.965C436.422 347.946 437.82 347.367 438.85 346.336C439.881 345.306 440.46 343.908 440.46 342.451C440.46 340.993 439.881 339.596 438.85 338.565C437.82 337.535 436.422 336.956 434.965 336.956Z" fill="#CCCCCC"/>
<path d="M412.294 412.517H294.83C293.373 412.517 291.975 411.938 290.945 410.908C289.914 409.877 289.335 408.479 289.335 407.022C289.335 405.564 289.914 404.166 290.945 403.136C291.975 402.105 293.373 401.526 294.83 401.526H412.294C413.752 401.526 415.149 402.105 416.18 403.136C417.211 404.166 417.789 405.564 417.789 407.022C417.789 408.479 417.211 409.877 416.18 410.908C415.149 411.938 413.752 412.517 412.294 412.517Z" fill="#CCCCCC"/>
<path d="M434.963 431.064H294.831C293.374 431.062 291.978 430.482 290.949 429.452C289.92 428.421 289.343 427.025 289.343 425.569C289.343 424.112 289.92 422.716 290.949 421.685C291.978 420.655 293.374 420.075 294.831 420.073H434.963C435.685 420.072 436.4 420.214 437.068 420.489C437.736 420.765 438.342 421.17 438.853 421.68C439.364 422.191 439.77 422.797 440.047 423.464C440.323 424.131 440.466 424.846 440.466 425.569C440.466 426.291 440.323 427.006 440.047 427.673C439.77 428.341 439.364 428.947 438.853 429.457C438.342 429.967 437.736 430.372 437.068 430.648C436.4 430.924 435.685 431.065 434.963 431.064Z" fill="#CCCCCC"/>
<path d="M245.916 269.483C256.643 269.483 265.339 260.787 265.339 250.06C265.339 239.333 256.643 230.637 245.916 230.637C235.188 230.637 226.492 239.333 226.492 250.06C226.492 260.787 235.188 269.483 245.916 269.483Z" fill="#7B80E3"/>
<path d="M243.991 257.469C243.554 257.47 243.129 257.329 242.779 257.066L242.757 257.05L238.193 253.558C237.981 253.397 237.802 253.194 237.669 252.964C237.535 252.733 237.448 252.478 237.413 252.214C237.377 251.949 237.395 251.68 237.463 251.423C237.532 251.165 237.651 250.923 237.813 250.712C237.976 250.5 238.178 250.322 238.409 250.189C238.64 250.056 238.895 249.969 239.16 249.935C239.424 249.9 239.693 249.918 239.951 249.987C240.208 250.056 240.45 250.176 240.661 250.339L243.618 252.606L250.604 243.491C250.766 243.28 250.968 243.102 251.199 242.969C251.429 242.836 251.684 242.749 251.948 242.714C252.212 242.68 252.48 242.697 252.737 242.766C252.995 242.835 253.236 242.954 253.447 243.116L253.404 243.176L253.449 243.116C253.875 243.444 254.154 243.927 254.225 244.46C254.295 244.993 254.151 245.532 253.824 245.959L245.606 256.676C245.416 256.923 245.172 257.122 244.892 257.26C244.612 257.397 244.304 257.468 243.993 257.467L243.991 257.469Z" fill="white"/>
<path d="M267.335 333.176C267.336 335.727 266.834 338.253 265.859 340.61C264.883 342.967 263.453 345.109 261.65 346.913C259.846 348.718 257.705 350.149 255.349 351.126C252.992 352.102 250.466 352.605 247.915 352.606C247.748 352.609 247.581 352.602 247.415 352.586C243.596 352.488 239.891 351.266 236.763 349.072C233.635 346.879 231.223 343.812 229.829 340.255C228.436 336.698 228.122 332.808 228.928 329.074C229.733 325.34 231.623 321.926 234.359 319.26C237.095 316.593 240.557 314.793 244.311 314.085C248.065 313.376 251.944 313.791 255.464 315.276C258.984 316.761 261.988 319.252 264.099 322.436C266.21 325.619 267.336 329.355 267.335 333.176Z" fill="#CCCCCC"/>
<path d="M245.916 435.718C256.643 435.718 265.339 427.022 265.339 416.295C265.339 405.568 256.643 396.872 245.916 396.872C235.188 396.872 226.492 405.568 226.492 416.295C226.492 427.022 235.188 435.718 245.916 435.718Z" fill="#CCCCCC"/>
<path d="M494.483 190.614H454.554C451.639 190.614 448.844 189.456 446.782 187.395C444.721 185.334 443.563 182.538 443.563 179.623V150.132C443.563 150.003 443.6 149.877 443.668 149.767C443.737 149.658 443.835 149.57 443.951 149.514C444.067 149.458 444.197 149.435 444.325 149.449C444.454 149.464 444.575 149.514 444.677 149.594L494.91 189.389C495.021 189.477 495.103 189.598 495.143 189.735C495.182 189.872 495.179 190.018 495.132 190.153C495.085 190.288 494.997 190.404 494.881 190.487C494.765 190.57 494.626 190.614 494.483 190.614Z" fill="#CCCCCC"/>
<path d="M267.335 333.176C267.336 335.727 266.834 338.253 265.859 340.61C264.883 342.967 263.453 345.109 261.65 346.913C259.846 348.718 257.705 350.149 255.349 351.126C252.992 352.102 250.466 352.605 247.915 352.606C247.748 352.609 247.581 352.602 247.415 352.586C244.906 346.327 243.938 339.556 244.595 332.845C245.251 326.134 247.511 319.68 251.185 314.026C255.703 314.8 259.802 317.147 262.757 320.651C265.713 324.155 267.334 328.591 267.335 333.176Z" fill="#7B80E3"/>
<path d="M289.335 323.906C289.338 322.448 289.918 321.05 290.949 320.019C291.98 318.988 293.377 318.408 294.835 318.406H324.105C325.815 321.883 327.03 325.582 327.715 329.396H294.835C293.378 329.395 291.981 328.817 290.95 327.788C289.919 326.759 289.338 325.362 289.335 323.906Z" fill="#7B80E3"/>
<path d="M328.395 336.956C328.397 340.667 327.906 344.363 326.935 347.946H294.835C293.377 347.946 291.98 347.367 290.949 346.336C289.919 345.306 289.34 343.908 289.34 342.451C289.34 340.993 289.919 339.596 290.949 338.565C291.98 337.535 293.377 336.956 294.835 336.956H328.395Z" fill="#7B80E3"/>
<!-- <path d="M743.519 657.945H419.487V660.185H743.519V657.945Z" fill="#3F3D56"/> -->
<path d="M439.451 468.332C439.197 467.936 438.986 467.514 438.821 467.073L433.658 453.246C433.057 451.631 433.121 449.844 433.837 448.276C434.552 446.708 435.86 445.488 437.473 444.883L552.716 401.851C554.331 401.25 556.118 401.314 557.686 402.029C559.254 402.744 560.474 404.052 561.079 405.666L566.241 419.494C566.54 420.293 566.678 421.144 566.648 421.997C566.618 422.85 566.42 423.689 566.066 424.465C565.711 425.242 565.208 425.941 564.583 426.523C563.959 427.105 563.226 427.558 562.426 427.856L447.185 470.888C445.797 471.406 444.275 471.434 442.868 470.97C441.462 470.505 440.257 469.574 439.451 468.332Z" fill="#7B80E3"/>
<path d="M552.349 398.278L505.486 416.965C504.009 417.409 502.76 418.405 501.998 419.746C501.236 421.086 501.019 422.669 501.393 424.165L506.831 445.94C507.046 446.8 507.449 447.602 508.011 448.288C508.572 448.974 509.279 449.527 510.08 449.907C510.881 450.287 511.756 450.485 512.643 450.486C513.53 450.488 514.405 450.292 515.208 449.915L562.2 427.796C563.689 427.237 564.895 426.112 565.556 424.665C566.217 423.219 566.277 421.57 565.724 420.079L560.076 401.803C559.517 400.312 558.39 399.103 556.942 398.442C555.493 397.782 553.841 397.722 552.349 398.278Z" fill="#2F2E41"/>
<path d="M638.111 533.94C636.64 534.109 635.155 533.771 633.902 532.981C632.649 532.192 631.702 530.999 631.219 529.599L591.105 413.31C590.826 412.503 590.71 411.65 590.761 410.798C590.813 409.946 591.032 409.112 591.405 408.345C591.779 407.577 592.3 406.891 592.939 406.325C593.578 405.759 594.323 405.325 595.13 405.046L609.082 400.233C610.712 399.672 612.498 399.781 614.047 400.536C615.597 401.29 616.783 402.629 617.346 404.258L657.461 520.548C658.021 522.178 657.911 523.963 657.157 525.512C656.402 527.062 655.064 528.248 653.436 528.812L639.483 533.625C639.038 533.779 638.578 533.884 638.111 533.94Z" fill="#7B80E3"/>
<path d="M620.336 402.268L635.732 450.313C636.329 451.735 636.355 453.332 635.806 454.773C635.256 456.214 634.173 457.388 632.781 458.051L612.521 467.708C611.721 468.09 610.846 468.289 609.959 468.292C609.073 468.295 608.196 468.101 607.394 467.725C606.591 467.349 605.881 466.8 605.316 466.116C604.751 465.433 604.344 464.633 604.125 463.774L591.295 413.446C590.779 411.942 590.88 410.295 591.575 408.865C592.271 407.436 593.505 406.34 595.007 405.818L612.701 398.549C614.206 398.031 615.856 398.132 617.288 398.829C618.719 399.526 619.816 400.763 620.336 402.268Z" fill="#2F2E41"/>
<path d="M573.721 658.604H558.962C557.239 658.602 555.586 657.916 554.368 656.698C553.149 655.479 552.464 653.827 552.462 652.104V529.089C552.464 527.366 553.149 525.714 554.368 524.495C555.586 523.277 557.239 522.591 558.962 522.589H573.721C575.444 522.591 577.097 523.277 578.315 524.495C579.534 525.714 580.219 527.366 580.221 529.089V652.104C580.219 653.827 579.534 655.479 578.315 656.698C577.097 657.916 575.444 658.602 573.721 658.604Z" fill="#2F2E41"/>
<path d="M602.914 658.604H588.154C586.431 658.602 584.778 657.916 583.56 656.698C582.341 655.479 581.656 653.827 581.654 652.104V529.089C581.656 527.366 582.341 525.714 583.56 524.495C584.778 523.277 586.431 522.591 588.154 522.589H602.914C604.637 522.591 606.289 523.277 607.508 524.495C608.726 525.714 609.412 527.366 609.414 529.089V652.104C609.412 653.827 608.726 655.479 607.508 656.698C606.289 657.916 604.637 658.602 602.914 658.604Z" fill="#2F2E41"/>
<path d="M615.077 543.551H548.015C546.159 543.549 544.38 542.811 543.067 541.499C541.755 540.187 541.017 538.407 541.015 536.551V427.607C541.015 416.857 545.285 406.548 552.886 398.947C560.487 391.346 570.796 387.076 581.546 387.076C592.295 387.076 602.605 391.346 610.206 398.947C617.807 406.548 622.077 416.857 622.077 427.607V536.551C622.075 538.407 621.337 540.187 620.025 541.499C618.712 542.811 616.933 543.549 615.077 543.551Z" fill="#CCCCCC"/>
<path d="M625.172 570.201H591.172V378.046L591.803 378.218C601.379 380.847 609.828 386.544 615.855 394.435C621.883 402.326 625.155 411.976 625.172 421.906V570.201Z" fill="#2F2E41"/>
<path d="M569.157 570.201H535.157V421.906C535.173 411.976 538.446 402.326 544.473 394.435C550.501 386.544 558.95 380.847 568.525 378.218L569.157 378.046V570.201Z" fill="#2F2E41"/>
<path d="M581.039 364.541C610.597 364.541 634.558 340.579 634.558 311.021C634.558 281.464 610.597 257.502 581.039 257.502C551.481 257.502 527.52 281.464 527.52 311.021C527.52 340.579 551.481 364.541 581.039 364.541Z" fill="#7B80E3"/>
<path d="M641.546 298.7C641.546 298.7 644.546 215.7 605.546 242.7C605.546 242.7 583.046 167.2 528.046 280.2L512.046 296.2C512.046 296.2 584.046 286.2 651.046 317.2L641.546 298.7Z" fill="#2F2E41"/>
<path d="M581.855 337.526C578.549 337.434 574.435 337.32 571.265 335.004C570.321 334.286 569.546 333.371 568.993 332.322C568.44 331.273 568.123 330.116 568.065 328.931C568.008 328.09 568.146 327.246 568.468 326.467C568.791 325.687 569.29 324.993 569.925 324.438C571.581 323.039 573.998 322.711 576.604 323.477L573.904 303.751L575.886 303.48L579.059 326.67L577.404 325.91C575.486 325.031 572.853 324.583 571.216 325.966C570.814 326.327 570.501 326.776 570.302 327.279C570.102 327.781 570.02 328.322 570.064 328.861C570.112 329.742 570.35 330.603 570.761 331.384C571.172 332.166 571.746 332.849 572.445 333.389C574.911 335.191 578.191 335.423 581.911 335.527L581.855 337.526Z" fill="#2F2E41"/>
<path d="M564.105 305.452H553.333V307.452H564.105V305.452Z" fill="#2F2E41"/>
<path d="M598.105 305.452H587.333V307.452H598.105V305.452Z" fill="#2F2E41"/>
<path d="M461.713 473.434C460.269 474.103 458.619 474.172 457.124 473.625C455.63 473.078 454.414 471.96 453.745 470.516L419.234 396.132C418.564 394.689 418.496 393.038 419.043 391.544C419.59 390.05 420.708 388.835 422.152 388.165C423.595 387.495 425.245 387.426 426.739 387.973C428.234 388.52 429.449 389.638 430.119 391.082L464.63 465.466C465.3 466.909 465.369 468.56 464.822 470.054C464.274 471.548 463.156 472.764 461.713 473.434Z" fill="#3F3D56"/>
<path d="M427.202 399.05C418.59 403.045 408.987 404.397 399.606 402.935C390.226 401.473 381.49 397.262 374.503 390.834C367.516 384.407 362.592 376.052 360.354 366.827C358.115 357.601 358.662 347.918 361.927 339.004C365.191 330.089 371.025 322.342 378.692 316.744C386.359 311.145 395.514 307.945 404.999 307.549C414.484 307.154 423.874 309.58 431.98 314.52C440.087 319.461 446.546 326.694 450.542 335.306C455.885 346.856 456.428 360.054 452.052 372.004C447.677 383.954 438.739 393.681 427.202 399.05ZM391.849 322.851C385.39 325.848 379.965 330.693 376.259 336.772C372.554 342.852 370.734 349.895 371.031 357.009C371.328 364.123 373.728 370.989 377.927 376.739C382.126 382.489 387.936 386.865 394.622 389.313C401.308 391.761 408.57 392.172 415.489 390.493C422.408 388.814 428.675 385.12 433.495 379.88C438.315 374.64 441.474 368.088 442.57 361.053C443.667 354.018 442.653 346.815 439.656 340.357C435.63 331.703 428.335 325 419.372 321.719C410.41 318.437 400.511 318.844 391.849 322.851Z" fill="#3F3D56"/>
</svg>
