<svg width="844" height="591" viewBox="0 0 844 591" fill="none" xmlns="http://www.w3.org/2000/svg">
<g clip-path="url(#clip0_1_281)">
<path d="M46.5003 509.256C49.818 482.578 66.3517 456.292 91.7945 447.61C81.7606 475.069 81.7628 505.193 91.8007 532.651C95.7103 543.226 101.16 554.581 97.4823 565.239C95.1943 571.871 89.5967 576.945 83.3399 580.118C77.0826 583.291 70.1383 584.803 63.281 586.285L61.9314 587.401C51.0455 562.82 43.1826 535.934 46.5003 509.256Z" fill="#F0F0F0"/>
<path d="M92.047 448.115C77.2303 464.716 68.0213 485.565 65.728 507.698C65.1497 512.454 65.3247 517.272 66.2466 521.973C67.2926 526.524 69.5382 530.712 72.75 534.101C75.6813 537.322 79.0526 540.277 81.1499 544.154C82.1941 546.154 82.8035 548.353 82.9383 550.606C83.0731 552.858 82.7302 555.114 81.9322 557.224C80.0804 562.536 76.4308 566.865 72.7146 570.974C68.5885 575.537 64.2304 580.21 62.4765 586.259C62.264 586.992 61.1392 586.62 61.3514 585.888C64.4029 575.364 74.6189 569.386 79.4909 559.907C81.7643 555.484 82.7185 550.349 80.5873 545.68C78.7236 541.597 75.2497 538.547 72.2535 535.312C69.0718 532.052 66.7369 528.061 65.4527 523.69C64.2944 519.051 63.9341 514.248 64.3872 509.488C65.2363 498.754 67.7677 488.221 71.8887 478.274C76.5291 466.896 83.0817 456.395 91.263 447.226C91.7696 446.659 92.5503 447.551 92.047 448.115Z" fill="white"/>
<path d="M66.0469 500.528C62.3856 499.639 59.1595 497.477 56.9447 494.429C54.73 491.381 53.6707 487.646 53.9562 483.889C54.0165 483.129 55.2003 483.187 55.1399 483.948C54.8676 487.446 55.8546 490.926 57.9228 493.76C59.991 496.594 63.0042 498.595 66.4184 499.402C67.1601 499.579 66.7844 500.703 66.0469 500.528Z" fill="white"/>
<path d="M71.0487 532.664C77.6614 528.716 82.543 522.42 84.72 515.032C84.9351 514.3 86.06 514.673 85.8451 515.404C83.5653 523.087 78.472 529.629 71.5816 533.722C70.9246 534.112 70.3952 533.052 71.0487 532.664Z" fill="white"/>
<path d="M77.6283 468.018C78.9733 468.657 80.4559 468.952 81.9431 468.877C83.4303 468.801 84.8754 468.358 86.1488 467.586C86.8005 467.188 87.3292 468.249 86.6816 468.644C85.2709 469.49 83.6742 469.978 82.0313 470.065C80.3884 470.153 78.7492 469.836 77.2568 469.143C77.1107 469.09 76.9904 468.983 76.9204 468.844C76.8504 468.705 76.836 468.544 76.88 468.395C76.93 468.246 77.0366 468.123 77.1767 468.053C77.3168 467.982 77.4791 467.97 77.6283 468.018Z" fill="white"/>
<path d="M169.348 495.26C168.948 495.52 168.548 495.78 168.148 496.05C162.789 499.574 157.726 503.527 153.008 507.87C152.638 508.2 152.268 508.54 151.908 508.88C140.653 519.466 131.46 532.049 124.798 545.99C122.152 551.54 119.933 557.284 118.158 563.17C115.708 571.3 113.698 580.31 108.848 586.96C108.35 587.66 107.809 588.328 107.228 588.96H63.3978C63.2982 588.91 63.1981 588.87 63.098 588.82L61.348 588.9C61.4183 588.59 61.4979 588.27 61.5682 587.96C61.6082 587.78 61.658 587.6 61.6981 587.42C61.7279 587.3 61.7581 587.18 61.7782 587.07C61.7879 587.03 61.7982 586.99 61.808 586.96C61.828 586.85 61.8582 586.75 61.8783 586.65C62.3182 584.86 62.7715 583.07 63.2381 581.28C63.2381 581.27 63.2381 581.27 63.2479 581.26C66.8382 567.63 71.598 554.18 78.2479 541.88C78.4481 541.51 78.6478 541.13 78.868 540.76C81.8962 535.233 85.3712 529.962 89.2581 525C91.3953 522.291 93.6682 519.69 96.0682 517.21C102.282 510.814 109.463 505.435 117.348 501.27C133.068 492.97 151.268 489.79 168.068 494.86C168.498 494.991 168.918 495.12 169.348 495.26Z" fill="#F0F0F0"/>
<path d="M169.249 495.817C147.424 500.152 127.519 511.253 112.362 527.545C109.037 530.994 106.276 534.946 104.181 539.255C102.276 543.519 101.548 548.214 102.072 552.854C102.473 557.191 103.386 561.58 102.726 565.938C102.356 568.164 101.519 570.286 100.27 572.166C99.0215 574.046 97.3896 575.64 95.4816 576.845C90.8054 579.971 85.2851 581.23 79.8438 582.274C73.8023 583.433 67.5087 584.54 62.4664 588.314C61.8555 588.771 61.1817 587.797 61.7917 587.34C70.5644 580.775 82.3204 582.152 91.9173 577.517C96.3954 575.354 100.249 571.829 101.358 566.818C102.328 562.436 101.391 557.909 100.947 553.522C100.369 549.003 100.907 544.411 102.514 540.148C104.382 535.746 106.986 531.695 110.214 528.167C117.354 520.108 125.717 513.222 134.996 507.761C145.552 501.47 157.106 497.03 169.158 494.635C169.904 494.487 169.991 495.67 169.249 495.817Z" fill="white"/>
<path d="M116.933 522.012C114.545 519.098 113.271 515.43 113.337 511.663C113.404 507.896 114.808 504.275 117.297 501.447C117.803 500.877 118.713 501.636 118.207 502.207C115.884 504.836 114.577 508.209 114.522 511.717C114.467 515.225 115.668 518.637 117.907 521.337C118.394 521.924 117.417 522.596 116.933 522.012Z" fill="white"/>
<path d="M101.579 550.683C109.236 551.511 116.924 549.423 123.11 544.835C123.723 544.38 124.397 545.355 123.785 545.809C117.338 550.572 109.333 552.728 101.367 551.848C100.608 551.764 100.824 550.599 101.579 550.683Z" fill="white"/>
<path d="M145.754 503.028C146.443 504.348 147.449 505.476 148.682 506.311C149.915 507.146 151.336 507.662 152.817 507.812C153.577 507.887 153.36 509.052 152.605 508.978C150.969 508.804 149.401 508.233 148.037 507.313C146.672 506.394 145.554 505.154 144.78 503.702C144.695 503.572 144.664 503.414 144.691 503.261C144.719 503.107 144.804 502.971 144.929 502.878C145.059 502.789 145.218 502.755 145.372 502.783C145.527 502.811 145.664 502.899 145.754 503.028Z" fill="white"/>
<path d="M181.891 590.393H167.336C165.506 590.391 163.752 589.663 162.458 588.369C161.163 587.075 160.436 585.32 160.433 583.49V462.182C160.436 460.352 161.163 458.597 162.458 457.303C163.752 456.009 165.506 455.281 167.336 455.279H181.891C183.721 455.281 185.476 456.009 186.77 457.303C188.064 458.597 188.792 460.352 188.794 462.182V583.49C188.792 585.32 188.064 587.075 186.77 588.369C185.476 589.663 183.721 590.391 181.891 590.393Z" fill="#7B80E3"/>
<path d="M220.54 590.393H205.985C204.155 590.391 202.4 589.663 201.106 588.369C199.812 587.075 199.084 585.32 199.082 583.49V462.182C199.084 460.352 199.812 458.597 201.106 457.303C202.4 456.009 204.155 455.281 205.985 455.279H220.54C222.37 455.281 224.125 456.009 225.419 457.303C226.713 458.597 227.441 460.352 227.443 462.182V583.49C227.441 585.32 226.713 587.075 225.419 588.369C224.125 589.663 222.37 590.391 220.54 590.393Z" fill="#7B80E3"/>
<path d="M195.359 329.174C223.135 329.174 245.652 306.657 245.652 278.881C245.652 251.105 223.135 228.588 195.359 228.588C167.583 228.588 145.066 251.105 145.066 278.881C145.066 306.657 167.583 329.174 195.359 329.174Z" fill="#7B80E3"/>
<path d="M212.43 498.295H176.25C168.731 498.323 161.339 496.365 154.82 492.618C148.302 488.871 142.889 483.468 139.13 476.957C135.37 470.445 133.398 463.056 133.412 455.538C133.426 448.019 135.427 440.638 139.21 434.141L189.808 346.503C190.371 345.529 191.18 344.719 192.154 344.157C193.129 343.594 194.234 343.298 195.359 343.298C196.484 343.298 197.59 343.594 198.564 344.157C199.539 344.719 200.348 345.529 200.91 346.503L250.489 432.376C254.346 439.056 256.377 446.635 256.377 454.349C256.376 462.063 254.346 469.641 250.489 476.322C246.632 483.002 241.084 488.55 234.403 492.407C227.723 496.264 220.145 498.295 212.43 498.295Z" fill="#2F2E41"/>
<path d="M207.23 299.993C210.49 299.902 214.547 299.789 217.673 297.506C218.604 296.798 219.368 295.895 219.913 294.861C220.459 293.826 220.771 292.685 220.829 291.517C220.885 290.687 220.749 289.856 220.431 289.087C220.112 288.318 219.621 287.634 218.994 287.087C217.361 285.707 214.977 285.383 212.408 286.138L215.07 266.686L213.116 266.419L209.987 289.287L211.619 288.538C213.51 287.671 216.107 287.229 217.721 288.593C218.117 288.949 218.426 289.392 218.623 289.887C218.82 290.383 218.9 290.917 218.858 291.448C218.81 292.317 218.575 293.166 218.17 293.936C217.765 294.707 217.198 295.381 216.509 295.913C214.077 297.69 210.843 297.919 207.175 298.022L207.23 299.993Z" fill="#2F2E41"/>
<path d="M235.356 268.364H224.733V270.336H235.356V268.364Z" fill="#2F2E41"/>
<path d="M201.827 268.364H191.205V270.336H201.827V268.364Z" fill="#2F2E41"/>
<path d="M183.53 487.047C183.112 486.167 182.886 485.209 182.868 484.235L180.389 393.899C180.308 390.139 181.724 386.502 184.325 383.786C186.925 381.07 190.498 379.499 194.258 379.417C198.017 379.335 201.655 380.75 204.371 383.35C207.088 385.951 208.66 389.523 208.743 393.282L211.222 483.619C211.259 485.449 210.57 487.219 209.304 488.541C208.039 489.863 206.301 490.629 204.471 490.671L189.92 490.987C188.588 491.015 187.277 490.658 186.144 489.959C185.01 489.26 184.103 488.249 183.53 487.047Z" fill="#7B80E3"/>
<path d="M190.693 241.704C196.803 249.695 206.504 255.056 216.756 253.786C226.519 252.578 234.573 245.773 236.594 236.031C237.476 231.425 237.238 226.674 235.9 222.179C234.562 217.684 232.163 213.577 228.905 210.203C221.995 202.935 212.105 199.026 202.316 197.685C183.772 195.145 164.728 201.677 150.707 213.86C143.666 219.916 138.045 227.45 134.246 235.925C130.586 244.337 128.842 253.458 129.142 262.627C129.681 280.747 137.618 298.832 151.313 310.849C153.014 312.337 154.795 313.731 156.646 315.026C158.208 316.122 159.688 313.558 158.14 312.472C144.115 302.633 135.169 286.624 132.714 269.803C131.428 261.328 132.001 252.675 134.394 244.443C136.787 236.212 140.942 228.599 146.572 222.134C157.897 209.257 174.502 200.888 191.7 200.138C209.005 199.383 230.631 207.109 233.87 226.373C235.321 235.008 232.094 244.083 224.182 248.406C215.71 253.034 205.323 251.13 198.043 245.152C196.26 243.695 194.651 242.037 193.247 240.211C192.106 238.719 189.536 240.191 190.693 241.704Z" fill="#2F2E41"/>
<path d="M382 590.961H1C0.734784 590.961 0.480429 590.855 0.292892 590.668C0.105356 590.48 0 590.226 0 589.961C0 589.695 0.105356 589.441 0.292892 589.253C0.480429 589.066 0.734784 588.961 1 588.961H382C382.265 588.961 382.52 589.066 382.707 589.253C382.895 589.441 383 589.695 383 589.961C383 590.226 382.895 590.48 382.707 590.668C382.52 590.855 382.265 590.961 382 590.961Z" fill="#3F3D56"/>
<path d="M224.221 564.589L143 492.289L197.557 431L278.779 503.3L224.221 564.589Z" fill="white"/>
<path d="M224.221 564.589L143 492.289L197.557 431L278.779 503.3L224.221 564.589ZM145.824 492.125L224.057 561.766L275.955 503.464L197.721 433.824L145.824 492.125Z" fill="#E6E6E6"/>
<path d="M193.411 457.228L189.862 461.215L249.658 514.442L253.206 510.456L193.411 457.228Z" fill="#E4E4E4"/>
<path d="M182.766 469.187L179.217 473.173L239.013 526.401L242.561 522.414L182.766 469.187Z" fill="#E4E4E4"/>
<path d="M172.12 481.146L168.572 485.133L228.367 538.36L231.916 534.374L172.12 481.146Z" fill="#E4E4E4"/>
<path d="M620.736 377.964H329.736V159.964H620.736V377.964Z" fill="white"/>
<path d="M620.736 377.964H329.736V159.964H620.736V377.964ZM332.736 162.964V374.964H617.736V162.964H332.736Z" fill="#E6E6E6"/>
<path d="M475.145 324.782C505.746 324.782 530.554 299.975 530.554 269.373C530.554 238.772 505.746 213.964 475.145 213.964C444.543 213.964 419.736 238.772 419.736 269.373C419.736 299.975 444.543 324.782 475.145 324.782Z" fill="#7B80E3"/>
<path d="M498.154 264.72H479.315V245.881C479.315 244.705 478.848 243.578 478.016 242.746C477.185 241.915 476.057 241.448 474.882 241.448C473.706 241.448 472.578 241.915 471.747 242.746C470.916 243.578 470.449 244.705 470.449 245.881V264.72H451.61C450.434 264.72 449.306 265.187 448.475 266.018C447.644 266.85 447.177 267.977 447.177 269.153C447.177 270.329 447.644 271.456 448.475 272.288C449.306 273.119 450.434 273.586 451.61 273.586H470.449V292.425C470.449 293.601 470.916 294.728 471.747 295.56C472.578 296.391 473.706 296.858 474.882 296.858C476.057 296.858 477.185 296.391 478.016 295.56C478.848 294.728 479.315 293.601 479.315 292.425V273.586H498.154C499.329 273.586 500.457 273.119 501.288 272.288C502.12 271.456 502.587 270.329 502.587 269.153C502.587 267.977 502.12 266.85 501.288 266.018C500.457 265.187 499.329 264.72 498.154 264.72Z" fill="white"/>
<path d="M353.739 159.054H245V77H353.739V159.054Z" fill="white"/>
<path d="M353.739 159.054H245V77H353.739V159.054ZM247 157.054H351.739V79H247V157.054Z" fill="#E6E6E6"/>
<path d="M339.396 99.3481H259.342V104.685H339.396V99.3481Z" fill="#E4E4E4"/>
<path d="M339.396 115.358H259.342V120.695H339.396V115.358Z" fill="#E4E4E4"/>
<path d="M339.396 131.369H259.342V136.706H339.396V131.369Z" fill="#E4E4E4"/>
<path d="M415.307 207.054H294V115.517H415.307V207.054Z" fill="white"/>
<path d="M415.307 207.054H294V115.517H415.307V207.054ZM296.231 204.823H413.075V117.748H296.231V204.823Z" fill="#E6E6E6"/>
<path d="M399.306 140.448H310V146.401H399.306V140.448Z" fill="#7B80E3"/>
<path d="M399.306 158.308H310V164.262H399.306V158.308Z" fill="#7B80E3"/>
<path d="M399.306 176.169H310V182.123H399.306V176.169Z" fill="#7B80E3"/>
<path d="M730.117 446.688H545V307H730.117V446.688Z" fill="white"/>
<path d="M730.117 446.688H545V307H730.117V446.688ZM548.405 443.284H726.712V310.405H548.405V443.284Z" fill="#E6E6E6"/>
<path d="M705.699 345.045H569.416V354.131H705.699V345.045Z" fill="#7B80E3"/>
<path d="M705.699 372.3H569.416V381.386H705.699V372.3Z" fill="#7B80E3"/>
<path d="M705.699 399.558H569.416V408.643H705.699V399.558Z" fill="#7B80E3"/>
<path d="M621.541 213.67C627.899 209.952 634.927 207.522 642.224 206.52C649.521 205.517 656.943 205.962 664.068 207.829C671.193 209.695 677.881 212.946 683.749 217.397C689.618 221.848 694.552 227.411 698.27 233.769C701.989 240.127 704.418 247.155 705.421 254.452C706.423 261.748 705.978 269.171 704.112 276.296C702.245 283.421 698.994 290.109 694.543 295.977C690.092 301.845 684.529 306.78 678.171 310.498L677.161 308.771C683.292 305.185 688.657 300.427 692.949 294.768C697.241 289.109 700.377 282.66 702.176 275.789C703.976 268.919 704.405 261.761 703.439 254.724C702.472 247.688 700.129 240.91 696.543 234.779C692.958 228.648 688.199 223.283 682.54 218.991C676.881 214.699 670.432 211.564 663.562 209.764C656.691 207.964 649.533 207.535 642.496 208.502C635.46 209.468 628.683 211.811 622.551 215.397L621.541 213.67Z" fill="#E6E6E6"/>
<path d="M295.347 202.405C292.217 205.346 288.536 207.672 284.515 209.252C280.494 210.832 276.211 211.634 271.912 211.613C267.612 211.592 263.379 210.747 259.456 209.128C255.532 207.509 251.994 205.147 249.043 202.176C246.093 199.206 243.788 195.686 242.26 191.816C240.732 187.946 240.011 183.804 240.138 179.624C240.265 175.445 241.238 171.31 243.001 167.457C244.763 163.604 247.282 160.107 250.412 157.167L251.214 157.973C248.195 160.809 245.766 164.181 244.066 167.897C242.366 171.612 241.428 175.599 241.306 179.63C241.183 183.66 241.878 187.655 243.352 191.387C244.825 195.118 247.048 198.513 249.893 201.378C252.739 204.242 256.15 206.52 259.934 208.081C263.718 209.643 267.8 210.457 271.946 210.478C276.092 210.498 280.222 209.725 284.1 208.201C287.977 206.678 291.527 204.434 294.546 201.599L295.347 202.405Z" fill="#E6E6E6"/>
<path d="M303.125 468.094C303.087 468.571 303.046 469.034 303.016 469.517C302.535 475.912 302.572 482.336 303.127 488.726C303.16 489.221 303.209 489.727 303.255 490.219C304.75 505.582 309.083 520.535 316.034 534.317C317.591 537.422 319.297 540.451 321.116 543.408C322.534 545.686 324.023 547.922 325.585 550.115C331.525 558.4 338.831 566.97 339.638 576.845C339.734 577.911 339.711 587.433 339.638 588.5C339.632 588.589 339.656 580.236 339.649 580.325C335.118 577.7 339.638 588.5 339.638 588.5C339.638 588.5 330.408 588.556 330 588.5C327.229 588.017 316.313 588.51 313.5 588.5C305.29 588.352 302.5 588.5 289.503 588.5C293 588.496 311.209 583.515 313.5 588.5C310.431 583.944 293.5 589.5 289.503 588.5C289.503 588.5 295.087 588.634 295.03 588.5C294.624 587.772 295.03 587.277 295.03 587.277C295.03 587.277 277.735 552.401 275.716 539.503C274.446 530.649 274.582 521.65 276.12 512.838C279.169 495.358 287.772 479.034 302.036 468.856C302.4 468.595 302.758 468.342 303.125 468.094Z" fill="#F0F0F0"/>
<path d="M303.504 468.515C303.341 468.849 303.179 469.183 303.016 469.517C299.612 476.557 296.998 483.953 295.221 491.568C295.136 491.948 295.046 492.336 294.956 492.724C292.584 503.321 291.866 514.221 292.827 525.037C292.833 525.145 292.842 525.267 292.857 525.38C293.096 527.903 293.429 530.419 293.855 532.928C294.547 537.671 295.987 542.273 298.119 546.565C299.972 550.049 302.611 553.053 305.828 555.338C306.143 555.571 306.472 555.801 306.793 556.025C307.063 556.197 307.32 556.372 307.59 556.543C310.127 558.147 312.824 559.578 315.25 561.35C316.364 562.142 317.403 563.036 318.353 564.02C320.18 565.938 321.471 568.303 322.094 570.878C322.346 571.884 322.505 572.911 322.569 573.946C322.162 573.868 321.755 573.79 321.346 573.734C321.271 572.704 321.096 571.683 320.825 570.685C320.326 568.835 319.433 567.115 318.208 565.642C317.243 564.506 316.15 563.486 314.951 562.602C312.593 560.813 309.922 559.397 307.436 557.846C306.792 557.442 306.166 557.026 305.56 556.597C302.424 554.457 299.781 551.671 297.809 548.427C295.465 544.258 293.85 539.721 293.032 535.009C292.436 532.007 291.994 528.978 291.707 525.931C291.663 525.534 291.619 525.136 291.598 524.74C290.032 505.514 293.636 486.22 302.036 468.856C302.19 468.517 302.356 468.197 302.518 467.863C302.853 467.178 303.847 467.836 303.504 468.515Z" fill="white"/>
<path d="M294.853 491.517C296.319 491.778 297.827 491.671 299.242 491.206C300.656 490.74 301.933 489.931 302.957 488.85C303.481 488.294 304.271 489.178 303.75 489.73C302.613 490.919 301.202 491.811 299.64 492.329C298.079 492.846 296.414 492.974 294.792 492.7C294.637 492.687 294.492 492.615 294.388 492.5C294.284 492.384 294.228 492.233 294.231 492.078C294.24 491.921 294.31 491.774 294.427 491.669C294.543 491.564 294.696 491.509 294.853 491.517Z" fill="white"/>
<path d="M390.509 493.574C390.197 493.924 389.886 494.274 389.591 494.635L389.578 494.639L389.568 494.655C385.325 499.461 381.485 504.609 378.089 510.046L378.084 510.055C377.812 510.475 377.546 510.887 377.296 511.308L377.291 511.317C369.231 524.482 363.689 539.03 360.946 554.22C360.945 554.242 360.94 554.25 360.938 554.273C359.846 560.321 359.22 566.445 359.067 572.59C358.898 579.146 360.5 584 357.5 588.5C348.5 589 350.5 589 357.5 588.5C349.5 588.944 348.922 589.064 348.5 588.5C345.409 584.355 348.936 586.768 344.779 583.694C344.434 583.432 345.143 588.75 344.779 588.5C343.468 587.574 340.896 589.302 339.5 588.5C334.968 585.875 330.232 575.74 325.143 574.504C324.293 574.292 323.427 574.105 322.569 573.946C322.162 573.868 321.755 573.791 321.346 573.735C318.576 573.252 315.769 573.003 312.957 572.993C313.101 572.021 313.259 571.046 313.435 570.081C313.871 567.574 314.383 565.077 314.951 562.602L314.957 562.593C315.048 562.183 315.145 561.763 315.25 561.35C316.718 555.221 318.679 549.22 321.116 543.408C322.458 540.229 323.962 537.12 325.622 534.095C329.928 526.284 335.437 519.199 341.946 513.1C341.965 513.088 341.975 513.071 341.994 513.059C354.952 500.924 371.647 493.077 389.176 493.53C389.623 493.539 390.058 493.551 390.509 493.574Z" fill="#F0F0F0"/>
<path d="M390.559 494.138C390.229 494.303 389.913 494.465 389.591 494.635L389.578 494.638C382.617 498.211 376.074 502.544 370.069 507.559C369.76 507.806 369.454 508.067 369.163 508.325C360.875 515.362 353.731 523.644 347.984 532.874C347.915 532.972 347.859 533.067 347.803 533.162C346.472 535.314 345.23 537.515 344.075 539.763C341.773 543.964 340.153 548.503 339.274 553.211C338.655 557.108 338.955 561.097 340.15 564.857C340.257 565.246 340.374 565.617 340.505 565.985C340.614 566.293 340.718 566.588 340.832 566.887C342.361 570.962 344.402 574.957 344.915 579.337C344.946 579.599 344.968 579.856 344.973 580.103C345.06 581.303 344.995 582.51 344.779 583.694C344.434 583.432 344.084 583.179 343.721 582.929C343.833 582.139 343.87 581.34 343.83 580.543C343.807 580.111 343.77 579.682 343.71 579.252C343.206 575.272 341.351 571.55 339.914 567.831C339.652 567.154 339.416 566.492 339.204 565.809C337.954 562.183 337.509 558.329 337.9 554.514C338.536 549.777 339.977 545.184 342.163 540.934C343.491 538.18 344.958 535.495 346.558 532.89C346.761 532.546 346.973 532.207 347.194 531.872C353.097 522.548 360.395 514.185 368.834 507.073C375.077 501.799 381.902 497.255 389.176 493.53C389.502 493.351 389.832 493.186 390.162 493.02C390.849 492.683 391.237 493.796 390.559 494.138Z" fill="white"/>
<path d="M347.019 533.217C343.946 531.037 341.748 527.836 340.818 524.185C339.888 520.534 340.286 516.671 341.941 513.286C342.278 512.602 343.356 513.094 343.018 513.779C341.472 516.928 341.101 520.526 341.975 523.924C342.848 527.322 344.907 530.296 347.78 532.309C348.404 532.747 347.639 533.653 347.019 533.217Z" fill="white"/>
<path d="M339.779 564.924C347.383 563.702 354.247 559.659 359.002 553.6C359.473 553 360.38 553.762 359.91 554.362C354.95 560.657 347.798 564.85 339.882 566.105C339.128 566.224 339.028 565.043 339.779 564.924Z" fill="white"/>
<path d="M369.804 507.298C370.817 508.389 372.086 509.211 373.495 509.691C374.905 510.171 376.412 510.294 377.88 510.047C378.633 509.919 378.732 511.1 377.984 511.228C376.36 511.492 374.696 511.355 373.138 510.828C371.579 510.301 370.173 509.401 369.043 508.205C368.927 508.102 368.855 507.958 368.841 507.803C368.828 507.648 368.873 507.493 368.97 507.371C369.071 507.251 369.216 507.176 369.372 507.163C369.528 507.149 369.683 507.197 369.804 507.298Z" fill="white"/>
</g>
<defs>
<clipPath id="clip0_1_281">
<rect width="843.317" height="590.961" fill="white"/>
</clipPath>
</defs>
</svg>
